<?xml version="1.0" encoding="utf-8"?>
<!-- Generator: Adobe Illustrator 24.1.2, SVG Export Plug-In . SVG Version: 6.00 Build 0)  -->
<svg version="1.1" id="Layer_1" xmlns="http://www.w3.org/2000/svg" xmlns:xlink="http://www.w3.org/1999/xlink" x="0px" y="0px"
	 viewBox="0 0 900 600" style="enable-background:new 0 0 900 600;" xml:space="preserve">
<style type="text/css">
	.st0{fill: #ffffff; fill-opacity: 0}
	.st1{fill:#32C6F4;}
	.st2{fill:#199CC9;}
	.st3{fill:#085797;}
</style>
<rect class="st0" width="900" height="600"/>
<g>
	<polygon class="st1" points="445.37,327.59 445.37,385.01 445.18,385.12 433.87,378.59 308.19,306.03 308.19,147.83 358.1,176.64
		358.1,277.22 445.21,327.5 	"/>
	<polygon class="st2" points="319.5,141.3 358.1,119.01 358.1,176.64 308.19,147.83 	"/>
	<polygon class="st2" points="582.19,147.83 532.29,176.64 445.19,126.35 385.66,160.72 385.66,103.11 445.19,68.73 570.86,141.28
		"/>
	<polygon class="st3" points="582.19,147.83 582.19,306.03 456.45,378.62 445.37,385.01 445.37,327.59 445.21,327.5 532.29,277.22
		532.29,176.64 	"/>
	<path class="st3" d="M484.16,205.14h-0.03l-2.65,1.57l-35.59,20.91l-0.41,67.88l22.15-12.77l-0.41-41.7
		c-0.41-0.03-0.78-0.11-1.11-0.3c-1.73-0.97-2.03-3.68-0.68-6.09c1.33-2.41,3.81-3.57,5.52-2.62c1.7,0.95,2.03,3.68,0.68,6.09
		c-0.46,0.81-1.05,1.49-1.7,2l0.38,41.05l15.85-9.14L486,255.01l10.01-12.14l-0.22-16.17c-0.41-0.03-0.78-0.11-1.14-0.3
		c-1.73-0.97-2.03-3.68-0.68-6.09c1.33-2.41,3.81-3.57,5.52-2.62c1.73,0.95,2.03,3.68,0.68,6.09c-0.46,0.81-1.05,1.49-1.7,1.97
		l0.27,18.09l-10.03,12.14l0.16,14.5l15.85-9.17v-68.26L484.16,205.14z M486.3,239.38c-1.35,2.41-3.81,3.57-5.54,2.62
		c-1.7-0.95-2-3.68-0.68-6.09c0.46-0.81,1.08-1.49,1.73-2l-0.3-27.18l2.7-1.57l0.27,27.83c0.41,0.03,0.78,0.11,1.14,0.3
		C487.33,234.26,487.63,236.97,486.3,239.38z"/>
	<path class="st2" d="M504.72,192.56v0.49l-20.55,12.09h-0.03l-24.15-13.82c0.19-0.35,0.3-0.73,0.3-1.14c0-1.97-2.24-3.54-5-3.54
		c-2.73,0-4.98,1.57-4.98,3.54c0,1.97,2.24,3.54,4.98,3.54c0.95,0,1.84-0.19,2.6-0.51l23.61,13.5l-35.59,20.91h-0.03l-60.2-34.92
		v-0.14l20.64-11.9l38.27,21.83c-0.16,0.35-0.27,0.73-0.27,1.11c0,1.97,2.22,3.57,4.98,3.57s4.98-1.6,4.98-3.57
		c0-1.95-2.22-3.54-4.98-3.54c-0.95,0-1.84,0.19-2.6,0.51l-37.67-21.47l15.98-9.25l16.52,9.41l15.47-2.81l14.01,8.09
		c-0.16,0.35-0.3,0.73-0.3,1.14c0,1.97,2.24,3.54,5,3.54c2.73,0,4.98-1.57,4.98-3.54c0-1.97-2.24-3.54-4.98-3.54
		c-0.95,0-1.81,0.19-2.57,0.51l-15.66-9.03l-15.5,2.81l-14.28-8.14l17.5-10.09L504.72,192.56z"/>
	<path class="st1" d="M445.87,227.61l-0.38,67.88l-0.3,0.19l-47.63-27.51l-11.9-6.87V248.9l23.91,13.68l10.28-7.06l10.25,5.87v0.76
		c0.24,2.49,2,4.38,3.92,4.19c1.92-0.19,3.3-2.35,3.06-4.84c-0.22-2.49-1.97-4.38-3.92-4.19c-0.89,0.08-1.68,0.62-2.22,1.43
		l-11.22-6.41l-10.28,7.06l-23.77-13.58v-16.04l18.2,10.41c0,0.24,0,0.51,0.03,0.78c0.22,2.49,1.97,4.35,3.89,4.17
		c1.95-0.19,3.3-2.35,3.06-4.84c-0.22-2.49-1.97-4.35-3.89-4.16c-0.92,0.08-1.7,0.62-2.24,1.41l-19.04-10.9v-17.2l41.27,23.58
		c0,0.24,0,0.51,0.03,0.76c0.24,2.52,1.97,4.38,3.92,4.19c1.92-0.19,3.27-2.35,3.06-4.84c-0.24-2.49-2-4.35-3.92-4.19
		c-0.92,0.11-1.7,0.65-2.24,1.43l-42.11-24.1V192.7L445.87,227.61z"/>
</g>
<g>
	<g>
		<path class="st3" d="M184.92,469.39c4.69-7.07,12.03-10.61,22.02-10.61c9.9,0,17.71,3.45,23.41,10.35
			c5.7,6.9,8.56,15.48,8.56,25.74c0,10.26-2.85,18.82-8.56,25.67c-5.7,6.85-13.51,10.28-23.41,10.28c-10.7,0-18.44-3.8-23.22-11.41
			v9.82h-14.59v-99.49h15.79V469.39z M184.39,494.86c0,6.37,1.75,11.63,5.24,15.79c3.49,4.16,8.2,6.24,14.13,6.24
			c5.84,0,10.52-2.1,14.06-6.3c3.54-4.2,5.31-9.44,5.31-15.72c0-6.45-1.77-11.76-5.31-15.92c-3.54-4.16-8.22-6.24-14.06-6.24
			c-5.93,0-10.64,2.08-14.13,6.24C186.14,483.1,184.39,488.4,184.39,494.86z"/>
		<path class="st3" d="M276.72,487.43v14.73h-27.39v-14.73H276.72z"/>
		<path class="st3" d="M287.6,494.86c0-10.17,3.23-18.73,9.69-25.67c6.45-6.94,14.68-10.41,24.67-10.41c9.46,0,17,2.68,22.62,8.03
			c5.62,5.35,8.95,11.52,10.02,18.51h-16.18c-0.97-3.8-2.94-6.85-5.9-9.15c-2.96-2.3-6.52-3.45-10.68-3.45
			c-5.57,0-10.04,2.06-13.4,6.17c-3.36,4.11-5.04,9.44-5.04,15.98s1.68,11.85,5.04,15.92c3.36,4.07,7.83,6.1,13.4,6.1
			c4.16,0,7.71-1.15,10.68-3.45c2.96-2.3,4.93-5.35,5.9-9.15h16.18c-1.06,6.99-4.4,13.16-10.02,18.51
			c-5.62,5.35-13.16,8.03-22.62,8.03c-9.99,0-18.22-3.47-24.67-10.41C290.82,513.45,287.6,504.94,287.6,494.86z"/>
		<path class="st3" d="M412.43,500.03v-39.66h15.78v68.85h-14.59v-8.89c-1.59,3.01-4.18,5.5-7.76,7.5
			c-3.58,1.99-7.98,2.98-13.2,2.98c-8.14,0-14.39-2.45-18.77-7.36c-4.38-4.91-6.57-11.48-6.57-19.7v-43.38h15.79v41.26
			c0,10.44,4.47,15.65,13.4,15.65c4.95,0,8.84-1.48,11.67-4.45C411.01,509.87,412.43,505.6,412.43,500.03z"/>
		<path class="st3" d="M463.1,469.39c4.69-7.07,12.03-10.61,22.02-10.61c9.9,0,17.71,3.45,23.41,10.35
			c5.7,6.9,8.56,15.48,8.56,25.74c0,10.26-2.85,18.82-8.56,25.67c-5.7,6.85-13.51,10.28-23.41,10.28c-10.7,0-18.44-3.8-23.22-11.41
			v9.82h-14.59v-99.49h15.79V469.39z M462.57,494.86c0,6.37,1.74,11.63,5.24,15.79c3.49,4.16,8.2,6.24,14.13,6.24
			c5.84,0,10.52-2.1,14.06-6.3c3.54-4.2,5.31-9.44,5.31-15.72c0-6.45-1.77-11.76-5.31-15.92c-3.54-4.16-8.22-6.24-14.06-6.24
			c-5.93,0-10.64,2.08-14.13,6.24C464.31,483.1,462.57,488.4,462.57,494.86z"/>
		<path class="st3" d="M595.09,499.37h-52.4c0.62,5.48,2.61,9.84,5.97,13.07c3.36,3.23,7.78,4.84,13.26,4.84
			c3.63,0,6.9-0.88,9.82-2.65c2.92-1.77,5-4.16,6.24-7.16h15.92c-2.12,6.99-6.08,12.62-11.87,16.91c-5.79,4.29-12.62,6.43-20.5,6.43
			c-10.26,0-18.55-3.4-24.87-10.22c-6.33-6.81-9.48-15.43-9.48-25.87c0-10.17,3.18-18.7,9.55-25.6c6.37-6.9,14.59-10.35,24.67-10.35
			c10.08,0,18.24,3.38,24.48,10.15c6.24,6.76,9.35,15.28,9.35,25.53L595.09,499.37z M561.4,471.64c-4.95,0-9.06,1.46-12.34,4.38
			c-3.27,2.92-5.31,6.81-6.1,11.67h36.61c-0.71-4.86-2.65-8.76-5.84-11.67C570.55,473.1,566.44,471.64,561.4,471.64z"/>
		<g>
			<g>
				<path class="st2" d="M624.27,527.29c-2.03,1.99-4.64,2.98-7.83,2.98s-5.82-1-7.89-2.98c-2.08-1.99-3.12-4.58-3.12-7.76
					c0-3.09,1.04-5.68,3.12-7.76c2.08-2.08,4.71-3.12,7.89-3.12c3.1,0,5.68,1.04,7.76,3.12c2.08,2.08,3.12,4.67,3.12,7.76
					C627.33,522.72,626.31,525.3,624.27,527.29z"/>
			</g>
		</g>
		<g>
			<g>
				<path class="st2" d="M662.48,530.81c-8.14,0-14.19-1.9-18.17-5.7c-3.98-3.8-5.97-8.84-5.97-15.12
					c0.01-11.95,8.82-19.19,26.44-21.71l19.85-2.83v-1.06c0-8.4-4.91-12.6-14.72-12.6c-8.58,0-13.44,3.41-14.59,10.22h-15.39
					c0.71-6.72,3.52-12.27,8.42-16.65c4.91-4.38,12.23-6.57,21.96-6.57c9.81,0,17.22,2.26,22.22,6.77c4.99,4.51,7.5,10.83,7.5,18.97
					v31.71c0,5.57,0.66,9.9,1.99,13h-14.99c-0.09,0-0.2-0.33-0.33-1c-0.13-0.66-0.27-1.75-0.4-3.25c-0.13-1.5-0.2-3.1-0.2-4.78
					C681.41,527.27,673.54,530.81,662.48,530.81z M684.64,496.96l-18.28,2.83c-8.59,1.32-12.89,4.56-12.89,9.74
					c0,5.96,4.07,8.95,12.2,8.95c6.1,0,10.79-1.63,14.06-4.88c3.27-3.25,4.91-7.35,4.91-12.27V496.96z"/>
			</g>
		</g>
		<g>
			<g>
				<path class="st2" d="M726.69,448.82c-2.92,0-5.31-0.91-7.16-2.72c-1.86-1.81-2.79-4.13-2.79-6.96c0-2.92,0.93-5.31,2.79-7.16
					c1.86-1.86,4.24-2.79,7.16-2.79c2.83,0,5.17,0.93,7.03,2.79c1.86,1.86,2.79,4.24,2.79,7.16c0,2.83-0.93,5.15-2.79,6.96
					C731.86,447.92,729.52,448.82,726.69,448.82z M718.73,529.21v-68.85h15.79v68.85H718.73z"/>
			</g>
		</g>
	</g>
</g>
</svg>
